<svg width="15" height="17" viewBox="0 0 15 17" fill="none" xmlns="http://www.w3.org/2000/svg">
<path fill-rule="evenodd" clip-rule="evenodd" d="M4.42708 0.762761C4.50628 0.888212 4.53192 1.03964 4.49836 1.18378C4.46479 1.32793 4.37477 1.45299 4.24807 1.5315L1.23952 3.39196C1.11265 3.47051 0.959442 3.49598 0.813593 3.46277C0.667744 3.42955 0.541205 3.34037 0.461812 3.21484C0.382419 3.08932 0.356677 2.93773 0.390247 2.79342C0.423818 2.64911 0.513952 2.52391 0.640821 2.44536L3.64937 0.584901C3.71222 0.546013 3.78221 0.519765 3.85533 0.507657C3.92844 0.495549 4.00325 0.497819 4.07548 0.514338C4.14771 0.530856 4.21594 0.561299 4.27627 0.603925C4.3366 0.646552 4.38784 0.700526 4.42708 0.762761ZM10.2396 0.762761C10.2788 0.700526 10.3301 0.646552 10.3904 0.603925C10.4507 0.561299 10.519 0.530856 10.5912 0.514338C10.6634 0.497819 10.7382 0.495549 10.8113 0.507657C10.8845 0.519765 10.9544 0.546013 11.0173 0.584901L14.0258 2.44536C14.1527 2.52391 14.2428 2.64911 14.2764 2.79342C14.31 2.93773 14.2842 3.08932 14.2049 3.21484C14.1255 3.34037 13.9989 3.42955 13.8531 3.46277C13.7072 3.49598 13.554 3.47051 13.4271 3.39196L10.4186 1.5315C10.2919 1.45299 10.2019 1.32793 10.1683 1.18378C10.1347 1.03964 10.1604 0.888212 10.2396 0.762761ZM7.33333 3.10471C5.68763 3.10471 4.10933 3.75154 2.94565 4.90293C1.78196 6.05431 1.12821 7.61592 1.12821 9.24422C1.12821 10.8725 1.78196 12.4341 2.94565 13.5855C4.10933 14.7369 5.68763 15.3837 7.33333 15.3837C8.97904 15.3837 10.5573 14.7369 11.721 13.5855C12.8847 12.4341 13.5385 10.8725 13.5385 9.24422C13.5385 7.61592 12.8847 6.05431 11.721 4.90293C10.5573 3.75154 8.97904 3.10471 7.33333 3.10471ZM0 9.24422C0 5.23679 3.28308 1.98843 7.33333 1.98843C11.3836 1.98843 14.6667 5.23679 14.6667 9.24422C14.6667 13.2516 11.3836 16.5 7.33333 16.5C3.28308 16.5 0 13.2516 0 9.24422ZM7.33333 5.70935C7.48294 5.70935 7.62642 5.76815 7.73221 5.87282C7.838 5.97749 7.89744 6.11946 7.89744 6.26748V9.01352L9.61231 10.7103C9.66773 10.7614 9.71218 10.823 9.74302 10.8914C9.77385 10.9599 9.79043 11.0338 9.79176 11.1087C9.7931 11.1837 9.77916 11.2581 9.75079 11.3276C9.72242 11.3971 9.68019 11.4603 9.62663 11.5133C9.57306 11.5663 9.50925 11.608 9.43901 11.6361C9.36877 11.6642 9.29354 11.678 9.2178 11.6766C9.14205 11.6753 9.06736 11.6589 8.99816 11.6284C8.92896 11.5979 8.86669 11.5539 8.81504 11.4991L6.9347 9.63863C6.82888 9.53406 6.76936 9.39219 6.76923 9.24422V6.26748C6.76923 6.11946 6.82866 5.97749 6.93445 5.87282C7.04024 5.76815 7.18372 5.70935 7.33333 5.70935Z" fill="#0369A1"/>
</svg>
