<svg width="78" height="14" viewBox="0 0 78 14" fill="none" xmlns="http://www.w3.org/2000/svg">
<path d="M12.5397 5.16294C12.5004 5.04741 12.4282 4.94589 12.332 4.87092C12.2357 4.79595 12.1196 4.75081 11.9979 4.74108L8.43971 4.45838L6.89996 1.05044C6.85092 0.940672 6.77116 0.847445 6.6703 0.782004C6.56945 0.716563 6.4518 0.681707 6.33157 0.681641C6.21134 0.681575 6.09366 0.716302 5.99273 0.781632C5.8918 0.846962 5.81193 0.940102 5.76278 1.04981L4.22303 4.45838L0.664814 4.74108C0.545263 4.75055 0.430973 4.79426 0.335615 4.86697C0.240257 4.93969 0.16787 5.03833 0.127114 5.1511C0.0863581 5.26387 0.0789585 5.386 0.105801 5.50286C0.132643 5.61973 0.192591 5.72639 0.278472 5.81008L2.90797 8.37306L1.978 12.3994C1.94976 12.5213 1.95881 12.6489 2.00398 12.7655C2.04914 12.8822 2.12833 12.9826 2.23128 13.0537C2.33422 13.1248 2.45617 13.1634 2.58128 13.1643C2.7064 13.1653 2.82892 13.1286 2.93293 13.0591L6.33137 10.7938L9.7298 13.0591C9.83611 13.1297 9.96149 13.166 10.0891 13.1632C10.2167 13.1604 10.3403 13.1186 10.4434 13.0434C10.5466 12.9683 10.6242 12.8633 10.6659 12.7427C10.7076 12.6221 10.7113 12.4917 10.6766 12.3689L9.53507 8.37494L12.3662 5.82756C12.5515 5.66031 12.6196 5.39946 12.5397 5.16294Z" fill="#758091"/>
<path d="M28.8632 5.16294C28.8239 5.04741 28.7517 4.94589 28.6554 4.87092C28.5592 4.79595 28.443 4.75081 28.3214 4.74108L24.7632 4.45838L23.2234 1.05044C23.1744 0.940672 23.0946 0.847445 22.9938 0.782004C22.8929 0.716563 22.7753 0.681707 22.6551 0.681641C22.5348 0.681575 22.4171 0.716302 22.3162 0.781632C22.2153 0.846962 22.1354 0.940102 22.0863 1.04981L20.5465 4.45838L16.9883 4.74108C16.8687 4.75055 16.7545 4.79426 16.6591 4.86697C16.5637 4.93969 16.4914 5.03833 16.4506 5.1511C16.4098 5.26387 16.4024 5.386 16.4293 5.50286C16.4561 5.61973 16.5161 5.72639 16.602 5.81008L19.2315 8.37306L18.3015 12.3994C18.2732 12.5213 18.2823 12.6489 18.3275 12.7655C18.3726 12.8822 18.4518 12.9826 18.5548 13.0537C18.6577 13.1248 18.7797 13.1634 18.9048 13.1643C19.0299 13.1653 19.1524 13.1286 19.2564 13.0591L22.6549 10.7938L26.0533 13.0591C26.1596 13.1297 26.285 13.166 26.4126 13.1632C26.5401 13.1604 26.6638 13.1186 26.7669 13.0434C26.87 12.9683 26.9477 12.8633 26.9894 12.7427C27.031 12.6221 27.0348 12.4917 27.0001 12.3689L25.8586 8.37494L28.6896 5.82756C28.875 5.66031 28.9431 5.39946 28.8632 5.16294Z" fill="#758091"/>
<path d="M45.1868 5.16294C45.1475 5.04741 45.0753 4.94589 44.9791 4.87092C44.8828 4.79595 44.7667 4.75081 44.645 4.74108L41.0868 4.45838L39.5471 1.05044C39.498 0.940672 39.4183 0.847445 39.3174 0.782004C39.2165 0.716563 39.0989 0.681707 38.9787 0.681641C38.8584 0.681575 38.7407 0.716302 38.6398 0.781632C38.5389 0.846962 38.459 0.940102 38.4099 1.04981L36.8701 4.45838L33.3119 4.74108C33.1924 4.75055 33.0781 4.79426 32.9827 4.86697C32.8874 4.93969 32.815 5.03833 32.7742 5.1511C32.7335 5.26387 32.7261 5.386 32.7529 5.50286C32.7797 5.61973 32.8397 5.72639 32.9256 5.81008L35.5551 8.37306L34.6251 12.3994C34.5969 12.5213 34.6059 12.6489 34.6511 12.7655C34.6962 12.8822 34.7754 12.9826 34.8784 13.0537C34.9813 13.1248 35.1033 13.1634 35.2284 13.1643C35.3535 13.1653 35.476 13.1286 35.58 13.0591L38.9785 10.7938L42.3769 13.0591C42.4832 13.1297 42.6086 13.166 42.7362 13.1632C42.8638 13.1604 42.9874 13.1186 43.0905 13.0434C43.1936 12.9683 43.2713 12.8633 43.313 12.7427C43.3546 12.6221 43.3584 12.4917 43.3237 12.3689L42.1822 8.37494L45.0133 5.82756C45.1986 5.66031 45.2667 5.39946 45.1868 5.16294Z" fill="#758091"/>
<path d="M61.5103 5.16294C61.471 5.04741 61.3988 4.94589 61.3025 4.87092C61.2063 4.79595 61.0901 4.75081 60.9685 4.74108L57.4103 4.45838L55.8705 1.05044C55.8215 0.940672 55.7417 0.847445 55.6409 0.782004C55.54 0.716563 55.4224 0.681707 55.3022 0.681641C55.1819 0.681575 55.0642 0.716302 54.9633 0.781632C54.8624 0.846962 54.7825 0.940102 54.7334 1.04981L53.1936 4.45838L49.6354 4.74108C49.5158 4.75055 49.4016 4.79426 49.3062 4.86697C49.2108 4.93969 49.1385 5.03833 49.0977 5.1511C49.0569 5.26387 49.0495 5.386 49.0764 5.50286C49.1032 5.61973 49.1632 5.72639 49.2491 5.81008L51.8785 8.37306L50.9486 12.3994C50.9203 12.5213 50.9294 12.6489 50.9746 12.7655C51.0197 12.8822 51.0989 12.9826 51.2019 13.0537C51.3048 13.1248 51.4267 13.1634 51.5519 13.1643C51.677 13.1653 51.7995 13.1286 51.9035 13.0591L55.3019 10.7938L58.7004 13.0591C58.8067 13.1297 58.9321 13.166 59.0597 13.1632C59.1872 13.1604 59.3109 13.1186 59.414 13.0434C59.5171 12.9683 59.5948 12.8633 59.6364 12.7427C59.6781 12.6221 59.6819 12.4917 59.6472 12.3689L58.5057 8.37494L61.3367 5.82756C61.5221 5.66031 61.5901 5.39946 61.5103 5.16294Z" fill="#758091"/>
<path d="M77.8337 5.16294C77.7945 5.04741 77.7223 4.94589 77.626 4.87092C77.5298 4.79595 77.4136 4.75081 77.292 4.74108L73.7338 4.45838L72.194 1.05044C72.145 0.940672 72.0652 0.847445 71.9644 0.782004C71.8635 0.716563 71.7459 0.681707 71.6256 0.681641C71.5054 0.681575 71.3877 0.716302 71.2868 0.781632C71.1859 0.846962 71.106 0.940102 71.0568 1.04981L69.5171 4.45838L65.9589 4.74108C65.8393 4.75055 65.725 4.79426 65.6297 4.86697C65.5343 4.93969 65.4619 5.03833 65.4212 5.1511C65.3804 5.26387 65.373 5.386 65.3999 5.50286C65.4267 5.61973 65.4867 5.72639 65.5725 5.81008L68.202 8.37306L67.2721 12.3994C67.2438 12.5213 67.2529 12.6489 67.298 12.7655C67.3432 12.8822 67.4224 12.9826 67.5253 13.0537C67.6283 13.1248 67.7502 13.1634 67.8754 13.1643C68.0005 13.1653 68.123 13.1286 68.227 13.0591L71.6254 10.7938L75.0239 13.0591C75.1302 13.1297 75.2556 13.166 75.3831 13.1632C75.5107 13.1604 75.6344 13.1186 75.7375 13.0434C75.8406 12.9683 75.9182 12.8633 75.9599 12.7427C76.0016 12.6221 76.0054 12.4917 75.9707 12.3689L74.8291 8.37494L77.6602 5.82756C77.8456 5.66031 77.9136 5.39946 77.8337 5.16294Z" fill="#758091"/>
</svg>
