<svg width="6" height="10" viewBox="0 0 6 10" fill="none" xmlns="http://www.w3.org/2000/svg">
<path fill-rule="evenodd" clip-rule="evenodd" d="M5.66012 4.45975C5.80093 4.6006 5.88003 4.79161 5.88003 4.99077C5.88003 5.18993 5.80093 5.38094 5.66012 5.52179L1.41121 9.7707C1.34193 9.84244 1.25905 9.89966 1.16741 9.93902C1.07578 9.97839 0.977218 9.99911 0.877489 9.99997C0.77776 10.0008 0.678857 9.98183 0.586551 9.94407C0.494245 9.9063 0.410384 9.85053 0.339862 9.78001C0.26934 9.70949 0.213569 9.62563 0.175804 9.53332C0.138038 9.44102 0.119035 9.34211 0.119901 9.24238C0.120768 9.14266 0.141488 9.0441 0.180852 8.95246C0.220215 8.86083 0.277435 8.77795 0.349171 8.70866L4.06706 4.99077L0.349171 1.27288C0.212355 1.13122 0.136649 0.941496 0.13836 0.744562C0.140072 0.547629 0.219063 0.359247 0.358321 0.219989C0.497579 0.0807304 0.685961 0.00173855 0.882895 2.76566e-05C1.07983 -0.00168324 1.26955 0.0740223 1.41121 0.210838L5.66012 4.45975Z" fill="white"/>
</svg>
